# xmcd CD database file
#
# Track frame offsets:
#	150
#	11986
#	25384
#	38950
#	53299
#	67665
#	81231
#	93218
#	108205
#	120625
#	134096
#	148020
#	160072
#	171992
#	185980
#	199659
#	212270
#	227115
#	242286
#	254074
#	268274
#	282843
#
# Disc length: 3960 seconds
#
# Revision: 0
# Processed by: cddbd v1.5.1PL2 Copyright (c) Steve Scherf et al.
# Submitted via: CDex 1.51
#
DISCID=3a0f7616
DTITLE=Mildrey Bailey - Sonday, Monday oder Always, CD 2
DYEAR=1900
DGENRE=Jazz
TTITLE0=Tain't what you do
TTITLE1=Barrelhouse Music
TTITLE2=Arkansas Blues
TTITLE3=There'll be some Changes made
TTITLE4=A Ghost of a Change
TTITLE5=Darm that Dream
TTITLE6=Peace, Brother!
TTITLE7=Fools Rush in
TTITLE8=From another World
TTITLE9=I'm Nobodys Baby
TTITLE10=Give me Tie
TTITLE11=How can i ever be alone
TTITLE12=Tennessee Fish Fry
TTITLE13=I'll pray for you
TTITLE14=Blue
TTITLE15=When that Man is dead and gone
TTITLE16=Jenny
TTITLE17=Georgia on my Mind
TTITLE18=Rockin' Chair
TTITLE19=Sometimes i'm happy
TTITLE20=I'm afraid of Myself
TTITLE21=Everything depends on you
EXTD=
EXTT0=
EXTT1=
EXTT2=
EXTT3=
EXTT4=
EXTT5=
EXTT6=
EXTT7=
EXTT8=
EXTT9=
EXTT10=
EXTT11=
EXTT12=
EXTT13=
EXTT14=
EXTT15=
EXTT16=
EXTT17=
EXTT18=
EXTT19=
EXTT20=
EXTT21=
PLAYORDER=
